<?xml version="1.0" standalone="no"?>
<!DOCTYPE svg PUBLIC "-//W3C//DTD SVG 20010904//EN"
 "http://www.w3.org/TR/2001/REC-SVG-20010904/DTD/svg10.dtd">
<svg version="1.0" xmlns="http://www.w3.org/2000/svg"
 width="300.000000pt" height="300.000000pt" viewBox="0 0 300.000000 300.000000"
 preserveAspectRatio="xMidYMid meet">
<metadata>
Created by potrace 1.10, written by Peter Selinger 2001-2011
</metadata>
<g transform="translate(0.000000,300.000000) scale(0.100000,-0.100000)"
fill="#000000" stroke="none">
<path d="M794 2848 c3 -16 84 -25 151 -17 39 5 29 6 -47 7 -54 1 -99 6 -101
12 -3 6 -4 5 -3 -2z"/>
<path d="M1700 2844 c-24 -8 -53 -9 -90 -3 -65 11 -330 9 -330 -2 0 -4 69 -7
153 -7 83 0 168 -4 187 -9 21 -6 49 -6 70 0 19 4 69 12 110 16 l75 7 -70 5
c-39 2 -86 -1 -105 -7z"/>
<path d="M1126 2840 c22 -9 132 -5 142 4 3 4 -32 6 -79 5 -52 -1 -76 -4 -63
-9z"/>
<path d="M1930 2836 c14 -14 151 -8 168 8 2 2 -37 3 -87 2 -50 0 -86 -5 -81
-10z"/>
<path d="M20 2661 c26 -8 218 -15 210 -8 -3 3 -57 7 -120 10 -63 3 -104 2 -90
-2z"/>
<path d="M260 2656 c12 -12 276 -13 289 -1 7 7 -41 10 -144 10 -90 0 -150 -4
-145 -9z"/>
<path d="M715 2660 l-50 -7 57 0 c31 0 55 4 52 9 -3 4 -6 7 -7 6 -1 0 -24 -4
-52 -8z"/>
<path d="M1258 2662 c-148 -1 -268 -6 -268 -10 0 -10 600 -6 611 5 5 5 -10 8
-34 8 -23 0 -162 -1 -309 -3z"/>
<path d="M1710 2659 c-94 -7 -48 -11 159 -12 93 -1 156 2 158 8 3 11 -194 14
-317 4z"/>
<path d="M2130 2660 c0 -6 47 -10 122 -10 67 0 119 3 115 6 -11 11 -237 15
-237 4z"/>
<path d="M2445 2660 c-28 -7 -28 -8 -5 -9 78 -5 380 -5 465 0 69 4 22 6 -152
7 -138 1 -257 4 -265 6 -7 2 -26 0 -43 -4z"/>
<path d="M2261 2487 c-6 -6 -57 -10 -123 -9 -62 0 -106 -2 -98 -5 8 -3 18 -11
22 -17 5 -8 11 -7 19 1 8 8 37 10 90 6 48 -3 84 -1 91 5 8 6 29 7 56 2 46 -8
82 -3 82 11 0 5 -13 6 -28 3 -16 -3 -45 -1 -64 4 -25 7 -39 7 -47 -1z"/>
<path d="M1018 2484 c-3 -3 -188 -5 -412 -5 -223 0 -406 -3 -406 -7 0 -4 183
-8 407 -9 303 -1 410 1 415 10 6 9 8 9 8 0 0 -8 25 -12 76 -12 92 0 91 11 -2
15 -36 2 -69 6 -73 9 -5 2 -11 2 -13 -1z"/>
<path d="M1703 2477 c2 -8 28 -13 73 -14 65 -1 67 0 42 13 -18 9 -34 11 -50 5
-13 -5 -33 -5 -46 0 -17 7 -23 6 -19 -4z"/>
<path d="M1853 2483 c4 -3 5 -9 1 -14 -3 -5 6 -10 20 -11 73 -5 85 -4 80 3 -2
4 13 10 33 12 33 3 31 4 -12 5 -29 1 -57 -3 -64 -10 -11 -10 -13 -10 -7 0 5 8
0 12 -13 12 -10 0 -25 2 -33 3 -7 2 -10 2 -5 0z"/>
<path d="M1265 2469 c-32 -5 -23 -7 40 -9 44 -2 87 -2 95 -1 32 3 237 0 270
-4 33 -5 34 -5 10 6 -27 13 -344 19 -415 8z"/>
<path d="M2413 2474 c11 -11 239 -15 232 -4 -4 6 -57 10 -122 10 -64 0 -113
-3 -110 -6z"/>
<path d="M2693 2472 c-6 -4 58 -7 143 -6 84 0 156 3 160 6 9 9 -289 9 -303 0z"/>
<path d="M990 2410 c8 -5 33 -10 55 -10 22 0 47 5 55 10 10 7 -6 10 -55 10
-49 0 -65 -3 -55 -10z"/>
<path d="M983 2368 c-14 -17 -14 -240 -1 -255 7 -8 32 -12 67 -11 l56 2 -50 3
c-27 2 -57 6 -65 9 -29 11 19 20 76 14 40 -5 55 -3 59 8 9 25 5 203 -5 223 -9
15 -22 19 -69 19 -35 0 -63 -5 -68 -12z m127 -8 c0 -5 -5 -10 -11 -10 -8 0 -7
-5 1 -15 10 -13 10 -19 -3 -33 -9 -9 -16 -20 -16 -24 -1 -5 -3 -8 -6 -8 -3 0
-18 0 -35 0 -20 0 -30 5 -30 15 0 9 -7 18 -15 21 -15 6 -21 45 -8 57 10 11
123 8 123 -3z m-34 -108 c6 -4 11 -27 10 -52 -1 -43 -2 -45 -32 -47 -48 -2
-57 9 -49 55 6 38 15 47 50 51 6 0 15 -3 21 -7z"/>
<path d="M1434 2367 c-2 -7 -3 -69 -2 -138 l3 -124 59 -3 c32 -2 63 1 67 5 4
4 -21 6 -56 5 -42 -3 -65 0 -65 7 0 6 5 11 11 11 5 0 7 5 4 10 -3 6 2 10 11
10 14 0 15 3 6 12 -14 14 -16 64 -2 73 5 3 7 12 4 20 -4 8 -9 13 -13 11 -3 -2
-7 11 -7 30 -1 19 3 34 7 34 5 0 9 5 9 10 0 6 -7 10 -15 10 -18 0 -20 16 -2
23 9 4 9 6 -1 6 -7 1 -15 -5 -18 -12z"/>
<path d="M1887 2373 c-3 -5 26 -8 63 -8 37 0 66 3 63 8 -2 4 -31 7 -63 7 -32
0 -61 -3 -63 -7z"/>
<path d="M1396 2334 c-3 -9 -4 -20 0 -25 3 -5 -2 -16 -10 -25 -9 -9 -14 -20
-11 -25 3 -5 1 -17 -4 -27 -7 -14 -6 -25 5 -40 12 -18 12 -22 -3 -37 -9 -10
-26 -15 -39 -12 -28 5 -23 -8 6 -16 11 -3 20 0 20 6 0 7 12 -5 26 -26 15 -23
24 -48 22 -65 -2 -15 -5 -26 -8 -25 -3 1 -24 -2 -48 -7 -23 -4 -44 -4 -47 0
-2 4 -16 5 -30 3 -13 -3 -22 -9 -19 -14 3 -5 0 -9 -5 -9 -6 0 -11 7 -11 15 0
13 -3 13 -20 3 -14 -9 -16 -14 -7 -20 7 -4 249 -8 539 -8 413 0 528 3 535 12
11 18 10 207 -1 200 -5 -3 -7 2 -3 10 3 9 -4 25 -17 37 -19 18 -33 21 -97 19
l-74 -1 76 -6 c85 -7 114 -22 99 -51 -6 -10 -10 -29 -10 -41 0 -21 -2 -21 -82
-16 -49 4 -85 11 -90 19 -5 7 -6 35 -2 61 6 45 -7 83 -25 72 -9 -5 -6 -119 4
-134 4 -8 -6 -26 -29 -47 -32 -30 -42 -34 -91 -34 -86 0 -95 15 -95 147 0 96
-2 105 -14 87 -23 -32 -18 -182 6 -206 10 -10 18 -25 18 -33 0 -11 14 -14 68
-13 37 1 76 -1 87 -6 17 -6 24 -1 41 31 l20 38 84 3 c46 2 87 -1 92 -6 6 -6
11 -27 13 -47 3 -29 -2 -43 -20 -61 -24 -24 -52 -34 -40 -14 3 6 1 10 -4 10
-6 0 -11 -4 -11 -10 0 -5 -7 -10 -15 -10 -8 0 -15 4 -15 9 0 5 -9 7 -20 4 -11
-3 -26 -1 -33 5 -8 7 -18 7 -27 2 -22 -14 -33 -12 -26 6 3 8 2 12 -4 9 -6 -3
-10 -1 -10 6 0 8 -3 9 -14 0 -17 -14 -118 -17 -142 -3 -23 13 -86 -15 -64 -28
8 -5 -22 -8 -69 -7 -53 1 -86 6 -93 14 -6 7 -25 13 -43 13 -29 0 -32 3 -32 30
0 17 3 30 7 30 3 0 14 14 24 31 11 18 14 29 7 25 -6 -4 -11 -1 -11 6 0 7 -6 4
-12 -7 -6 -11 -22 -31 -35 -44 l-25 -24 21 -11 21 -12 -21 -18 c-18 -15 -30
-17 -76 -9 -58 9 -75 26 -30 31 l28 3 -26 25 c-14 13 -29 24 -33 24 -15 0 -32
53 -21 66 8 10 12 184 4 184 -2 0 -6 -7 -9 -16z"/>
<path d="M1547 2344 c9 -4 9 -13 2 -31 -5 -13 -7 -29 -3 -34 3 -5 -2 -12 -10
-15 -14 -5 -14 -8 0 -21 10 -11 13 -25 8 -46 -7 -35 -22 -53 -50 -60 -14 -3
-12 -5 9 -6 15 0 27 4 27 9 0 7 6 7 19 0 11 -5 22 -10 24 -10 3 0 5 50 6 110
0 107 0 110 -22 109 -12 0 -17 -3 -10 -5z"/>
<path d="M1872 2239 c-1 -71 2 -117 9 -125 15 -18 123 -19 137 -1 6 7 11 60
11 124 0 94 -3 111 -15 106 -8 -3 -14 -10 -13 -17 1 -6 -3 -23 -9 -38 -9 -21
-18 -28 -38 -28 -15 0 -24 -3 -20 -7 4 -4 17 -8 29 -8 44 0 38 -95 -6 -95 -7
0 -22 -3 -34 -6 -21 -6 -23 -3 -22 37 1 24 6 50 12 56 5 7 6 21 1 30 -4 10 -8
21 -9 26 -2 4 -4 10 -5 15 -2 4 -4 13 -4 21 -1 8 -6 16 -12 18 -6 2 -11 -35
-12 -108z m148 -108 c0 -14 -27 -21 -81 -21 -68 0 -62 18 9 23 31 2 60 4 65 5
4 1 7 -2 7 -7z"/>
<path d="M768 2311 c-26 -10 -49 -17 -52 -14 -2 3 -11 1 -18 -3 -7 -5 -24 -8
-38 -7 -22 2 -21 1 5 -7 19 -6 39 -6 55 -1 14 6 39 13 57 16 17 3 34 13 37 21
3 8 4 14 3 14 -1 -1 -23 -9 -49 -19z"/>
<path d="M939 2313 c-1 -5 -1 -12 0 -17 1 -5 -8 -6 -19 -3 -15 4 -19 2 -12 -6
12 -14 14 -108 3 -126 -8 -12 -108 -19 -138 -10 -6 2 -19 -5 -27 -16 -13 -17
-15 -18 -16 -3 0 9 6 18 13 21 8 3 4 12 -13 27 l-25 22 28 24 c23 20 39 24 92
24 62 0 88 11 64 26 -8 4 -9 3 -5 -4 5 -9 -13 -12 -64 -12 -65 0 -73 -2 -96
-27 -24 -26 -26 -33 -22 -124 2 -54 8 -102 15 -110 9 -11 30 -13 100 -8 48 3
96 2 105 -2 19 -10 191 -12 237 -3 30 6 39 27 13 30 -7 1 -16 2 -21 3 -4 0 -6
13 -3 28 l5 28 -24 -29 c-28 -32 -79 -42 -140 -26 -27 7 -47 6 -77 -4 -22 -8
-42 -13 -44 -11 -8 9 -58 13 -58 5 0 -5 -12 -7 -27 -4 -52 9 -54 11 -47 51 11
62 24 70 136 76 47 3 48 2 54 -29 4 -24 11 -32 24 -29 14 3 17 -2 13 -18 -4
-18 -3 -19 6 -7 7 10 30 15 73 16 115 3 134 21 134 126 0 42 -4 74 -8 72 -5
-3 -8 2 -8 10 0 8 -3 17 -8 20 -12 7 -1 -138 12 -146 7 -5 5 -8 -5 -8 -17 0
-33 -26 -24 -39 2 -4 -1 -8 -8 -9 -7 -1 -33 -4 -59 -8 -57 -8 -104 9 -114 40
-4 11 -6 60 -5 109 2 48 0 87 -3 87 -3 0 -7 -3 -7 -7z"/>
<path d="M1214 2295 c2 -5 10 -8 17 -7 8 2 32 7 54 12 38 8 37 8 -17 7 -34 -1
-56 -6 -54 -12z"/>
<path d="M2136 2296 c3 -8 24 -14 57 -16 129 -6 194 0 112 10 -136 18 -145 18
-139 7 5 -8 2 -7 -7 1 -17 16 -30 15 -23 -2z"/>
<path d="M420 2291 c0 -10 78 -13 84 -3 2 4 -16 8 -40 10 -24 1 -44 -2 -44 -7z"/>
<path d="M1601 2232 c-1 -50 2 -71 10 -66 6 3 8 16 5 27 -3 12 -2 26 3 31 4 6
2 27 -5 46 -12 34 -13 33 -13 -38z"/>
<path d="M123 2284 c7 -8 108 -7 115 1 3 3 -23 5 -58 5 -35 0 -60 -3 -57 -6z"/>
<path d="M2462 2285 c7 -7 168 -8 175 -1 4 3 -36 6 -87 6 -51 0 -91 -2 -88 -5z"/>
<path d="M705 2253 c-14 -15 -25 -35 -24 -43 0 -9 3 -7 9 6 4 12 21 31 37 42
15 12 23 22 16 22 -7 0 -24 -12 -38 -27z"/>
<path d="M1199 2257 c4 -4 39 -7 77 -5 l69 3 -77 5 c-42 3 -73 1 -69 -3z"/>
<path d="M663 2162 c-1 -15 -3 -55 -4 -90 l-2 -63 -41 3 c-22 1 -79 0 -126 -2
-83 -3 -82 -4 42 -9 70 -4 129 -9 132 -12 5 -5 18 -71 19 -96 0 -7 6 -13 14
-13 7 0 13 -9 13 -21 0 -11 5 -17 10 -14 6 3 10 2 10 -4 0 -5 -6 -11 -12 -13
-10 -4 -14 -121 -16 -534 -1 -291 0 -539 3 -551 3 -12 18 -25 36 -32 42 -15
1023 -16 1014 -1 -4 6 -65 9 -153 9 -151 -1 -216 6 -190 22 7 5 100 8 206 8
106 -1 196 1 199 5 4 3 -12 6 -35 6 -22 0 -43 4 -47 10 -3 5 -15 6 -28 1 -12
-4 -96 -9 -187 -11 -91 -2 -192 -4 -225 -4 -33 -1 -63 0 -67 1 -3 2 -109 5
-235 7 -227 3 -279 9 -266 29 8 13 7 102 -1 116 -4 6 9 12 31 16 21 3 49 8 63
11 14 2 20 1 14 -3 -6 -5 -11 -37 -11 -73 0 -36 2 -59 4 -52 3 6 11 12 19 12
15 0 17 9 8 34 -3 9 -11 13 -16 10 -7 -4 -7 0 0 12 5 11 9 51 9 89 0 43 -1 54
-4 28 -4 -37 -7 -43 -27 -43 -13 0 -37 -3 -53 -6 -26 -5 -29 -3 -31 22 -1 15
-8 31 -15 36 -9 6 -9 8 2 8 10 0 12 12 9 49 l-5 50 54 -2 c29 -1 53 1 53 6 0
4 -22 7 -50 7 l-50 0 -1 53 c0 28 -1 108 -1 177 l-2 125 49 3 c32 2 51 -1 56
-10 11 -17 149 -21 149 -4 0 7 3 8 8 1 5 -7 25 -8 60 -2 30 5 52 11 49 13 -2
2 -84 6 -181 8 -98 3 -180 7 -183 10 -3 2 -6 36 -7 75 -2 59 0 71 13 71 12 0
13 2 3 8 -8 6 -14 38 -16 90 l-4 81 172 -2 c94 -1 194 0 221 1 28 1 94 0 148
-2 62 -3 96 -2 92 4 -3 6 -2 10 4 10 5 0 11 -4 13 -10 3 -10 48 -12 228 -9 52
1 114 -1 138 -3 23 -2 42 -1 42 4 0 4 8 5 18 1 11 -3 9 1 -6 12 -17 12 -43 17
-93 17 -57 0 -69 3 -69 17 0 13 -2 14 -9 2 -5 -8 -18 -16 -28 -17 -10 -2 -46
-8 -80 -14 -51 -9 -66 -9 -85 4 -18 12 -46 14 -128 11 -95 -4 -261 -5 -457 -2
-40 1 -73 5 -73 10 0 5 -6 5 -13 -1 -15 -13 -43 23 -38 51 1 10 -4 17 -13 17
-18 0 -21 16 -5 25 7 5 5 15 -5 31 -12 17 -16 49 -16 113 0 49 -3 92 -7 94 -5
3 -9 -7 -10 -21z m180 -1413 c29 0 19 -16 -14 -23 -50 -10 -76 -7 -82 8 -8 21
1 25 41 20 21 -3 45 -5 55 -5z m363 -26 c-9 -9 -138 -5 -148 5 -11 11 43 22
88 17 17 -1 38 1 45 6 10 6 15 3 17 -7 2 -9 1 -18 -2 -21z"/>
<path d="M2337 2183 c-8 -15 -16 -68 -18 -123 -1 -30 -5 -59 -8 -65 -7 -12 -8
-18 -10 -45 0 -11 -4 -19 -8 -19 -5 1 -17 1 -28 0 -18 -2 -18 -3 4 -12 18 -7
28 -5 42 7 10 9 16 21 13 25 -3 5 0 9 7 9 8 0 8 4 -1 15 -10 12 -9 16 2 20 8
3 19 5 24 4 18 -3 34 1 34 9 0 5 -14 6 -31 4 -25 -4 -30 -2 -23 9 7 11 14 169
7 169 -1 0 -4 -3 -6 -7z"/>
<path d="M110 2003 c0 -9 280 -7 288 2 3 3 -61 5 -141 5 -81 0 -147 -3 -147
-7z"/>
<path d="M2410 2003 c0 -9 189 -8 198 1 3 3 -40 6 -96 6 -56 0 -102 -3 -102
-7z"/>
<path d="M719 1968 c13 -17 60 -18 775 -16 l761 3 -759 2 c-587 3 -763 6 -775
16 -14 11 -14 10 -2 -5z"/>
<path d="M2703 1957 c-3 -5 -3 -11 1 -14 7 -7 56 5 56 15 0 10 -51 9 -57 -1z"/>
<path d="M660 1856 c0 -17 -14 -18 -182 -18 -43 0 -80 -4 -83 -8 -3 -5 52 -8
122 -6 95 1 131 -1 141 -11 11 -11 11 -14 -2 -19 -9 -3 -13 -11 -10 -16 4 -6
8 -36 9 -67 3 -55 2 -58 -20 -53 -12 2 -25 -1 -29 -6 -3 -5 0 -10 7 -9 41 1
42 -2 41 -75 -1 -47 -5 -73 -13 -76 -9 -3 -7 -10 5 -23 10 -11 12 -19 5 -19
-7 0 -9 -9 -6 -22 3 -13 7 -44 9 -70 2 -43 0 -48 -18 -49 -17 -1 -18 -2 -3 -6
9 -2 15 -9 12 -14 -4 -5 -1 -9 6 -9 7 0 8 -4 2 -12 -10 -14 -9 -93 2 -120 5
-12 2 -20 -9 -24 -15 -6 -15 -7 1 -19 14 -11 15 -16 5 -28 -7 -8 -9 -17 -5
-20 5 -3 7 -26 5 -51 -4 -40 -7 -46 -26 -46 -12 0 -28 -6 -34 -12 -10 -10 -15
-10 -21 0 -7 11 -9 11 -14 -2 -5 -12 4 -16 45 -18 l52 -3 0 -75 1 -75 -30 -1
c-49 -2 -55 -4 -55 -15 0 -8 4 -8 13 -2 6 5 18 8 25 7 6 -1 17 -2 22 -3 6 0
17 -18 26 -39 9 -20 28 -45 41 -56 l24 -18 -21 42 c-22 42 -22 47 -21 606 1
379 -2 564 -9 569 -5 3 -10 -1 -10 -9z"/>
<path d="M2091 1859 c-1 -17 -60 -35 -70 -22 -9 12 -73 14 -66 3 4 -6 -3 -10
-14 -10 -10 0 -21 6 -23 12 -3 7 -7 2 -10 -10 -6 -22 -5 -22 72 -17 99 6 143
-8 50 -16 l-65 -6 61 -1 c42 -1 65 2 73 12 7 8 21 12 31 9 11 -3 20 -1 20 5 0
9 46 8 78 -3 6 -2 12 0 12 5 0 6 11 10 25 10 14 0 25 4 25 9 0 15 -40 24 -54
11 -8 -6 -29 -10 -47 -10 -19 1 -44 -1 -56 -5 -18 -6 -25 -2 -32 16 -6 16 -10
18 -10 8z"/>
<path d="M2310 1763 c0 -78 3 -101 13 -98 15 6 22 131 7 140 -27 17 -1 22 105
21 66 -1 114 3 112 8 -2 5 -52 9 -113 9 -66 1 -112 5 -116 11 -4 6 -8 -35 -8
-91z"/>
<path d="M2560 1836 c0 -8 26 -13 77 -15 81 -2 96 8 21 15 -24 2 -55 5 -70 7
-17 3 -28 0 -28 -7z"/>
<path d="M53 1834 c9 -9 137 -11 137 -2 0 5 -32 8 -72 8 -39 0 -69 -3 -65 -6z"/>
<path d="M250 1830 c14 -4 50 -8 80 -8 42 0 49 2 30 8 -14 4 -50 8 -80 8 -42
0 -49 -2 -30 -8z"/>
<path d="M2770 1829 c0 -9 82 -9 120 0 28 7 19 8 -42 7 -43 0 -78 -4 -78 -7z"/>
<path d="M2289 1810 c-3 -20 -4 -25 -11 -36 -4 -6 -8 -34 -9 -63 l-2 -51 -59
0 c-32 0 -58 -4 -58 -9 0 -5 26 -7 59 -4 42 4 61 2 66 -8 5 -8 4 -14 -3 -17
-9 -3 -11 -22 -6 -68 6 -55 5 -64 -10 -64 -9 0 -16 -4 -16 -10 0 -5 8 -10 18
-10 13 0 14 -2 4 -9 -11 -7 -11 -9 1 -14 9 -3 17 -18 20 -34 2 -15 5 24 6 87
0 63 3 161 5 218 2 56 2 102 0 102 -2 0 -5 -4 -5 -10z"/>
<path d="M923 1773 c20 -2 54 -2 75 0 20 2 3 4 -38 4 -41 0 -58 -2 -37 -4z"/>
<path d="M1623 1773 c20 -2 54 -2 75 0 20 2 3 4 -38 4 -41 0 -58 -2 -37 -4z"/>
<path d="M1946 1765 c-18 -19 -20 -166 -2 -159 25 8 119 11 150 4 l33 -7 -1
79 c-1 58 -5 81 -16 88 -25 16 -146 12 -164 -5z m162 -7 c7 -7 12 -15 12 -19
0 -7 -50 -23 -63 -20 -5 1 -6 -3 -2 -9 4 -7 13 -7 26 1 18 9 20 8 17 -17 -3
-26 -6 -27 -60 -30 -48 -3 -59 0 -68 16 -14 26 -13 28 13 33 19 3 18 5 -10 12
-18 4 -33 11 -33 14 0 21 30 31 90 31 38 0 71 -5 78 -12z m-31 -114 c51 -10
36 -14 -43 -13 -60 0 -73 3 -56 10 13 5 28 7 32 4 5 -3 11 -1 15 5 4 6 11 8
16 4 5 -3 22 -8 36 -10z"/>
<path d="M867 1763 c-12 -11 -8 -88 6 -102 10 -11 9 -12 -1 -6 -10 5 -13 -1
-10 -26 l3 -34 89 -3 c89 -3 122 6 99 29 -6 6 -7 25 -2 52 12 61 11 67 -10 67
-17 0 -19 -5 -14 -34 4 -27 1 -36 -13 -44 -26 -14 -111 -3 -118 14 -3 8 -1 14
3 14 5 0 8 11 7 25 -1 17 -7 25 -20 25 -12 0 -16 5 -12 15 6 16 3 19 -7 8z
m163 -153 c10 -7 -12 -9 -75 -9 -54 1 -78 4 -60 8 52 11 119 12 135 1z"/>
<path d="M1224 1757 c-3 -8 -4 -49 -2 -93 l3 -79 88 -1 87 0 -85 3 c-51 2 -85
8 -85 14 0 7 31 10 90 7 l90 -3 -1 66 -1 67 -37 -10 c-39 -11 -60 -25 -24 -16
24 6 36 -12 27 -37 -5 -11 -22 -15 -65 -15 -59 0 -59 0 -59 30 0 17 5 30 13
31 6 0 1 5 -12 10 -15 6 -21 15 -17 24 3 8 3 15 0 15 -2 0 -7 -6 -10 -13z
m165 -122 c2 -3 -29 -5 -70 -4 -41 0 -66 4 -56 7 19 8 117 5 126 -3z"/>
<path d="M1552 1730 c-1 -15 -7 -31 -14 -38 -8 -8 -8 -15 1 -26 11 -13 4 -15
-51 -19 l-63 -3 63 -2 c34 -1 62 -6 62 -12 0 -5 -5 -10 -12 -10 -9 0 -9 -3 -1
-11 6 -6 9 -18 6 -25 -3 -8 -1 -14 5 -14 6 0 19 -3 29 -7 17 -6 17 -5 1 13
-12 14 -18 42 -21 99 -1 44 -4 69 -5 55z"/>
<path d="M1574 1715 c4 -22 7 -55 7 -72 -1 -29 2 -33 23 -33 13 0 26 5 28 12
3 7 11 9 24 4 10 -5 33 -9 49 -10 17 -1 38 -6 48 -10 15 -7 17 -1 17 68 0 72
-1 76 -19 67 -13 -8 -18 -20 -17 -41 2 -32 -9 -46 -34 -44 -8 1 -32 2 -52 3
-32 1 -37 4 -43 33 -4 17 -14 39 -23 47 -14 14 -15 12 -8 -24z"/>
<path d="M1912 1718 c-1 -17 -10 -32 -24 -39 -20 -11 -21 -12 -4 -25 21 -15
13 -34 -15 -34 -11 0 -17 -4 -14 -10 3 -5 15 -10 26 -10 13 0 19 -6 17 -16 -2
-9 8 -23 22 -33 18 -12 22 -13 15 -2 -5 8 -12 56 -15 105 -4 50 -8 79 -8 64z"/>
<path d="M1791 1681 c-1 -47 1 -52 17 -46 9 4 26 10 37 13 17 5 15 7 -10 12
-25 4 -31 11 -36 40 -6 31 -7 28 -8 -19z"/>
<path d="M1074 1655 c-4 -14 -4 -29 -1 -32 4 -3 2 -14 -3 -24 -7 -12 -6 -19 3
-22 6 -2 9 -8 5 -12 -4 -4 -14 -3 -22 4 -9 8 -44 11 -103 8 l-88 -3 95 -3 c62
-1 88 -5 75 -11 -16 -6 -14 -8 13 -7 37 0 57 25 49 63 -4 23 -2 24 49 24 55 0
61 4 44 30 -6 10 -10 11 -10 3 0 -9 -16 -13 -46 -13 -27 0 -43 4 -39 10 3 6 2
10 -4 10 -6 0 -13 -11 -17 -25z"/>
<path d="M240 1660 l-135 -6 110 -2 c61 -1 157 -4 215 -7 60 -2 99 -1 90 4
-22 13 -128 17 -280 11z"/>
<path d="M817 1659 c-9 -6 -27 -7 -40 -4 -17 5 -19 4 -7 -4 8 -6 25 -11 38
-11 19 0 22 -5 22 -35 0 -25 4 -35 16 -35 12 0 14 5 9 18 -4 9 -8 32 -8 50 1
35 -3 37 -30 21z"/>
<path d="M2495 1660 l-180 -5 -3 -127 c-1 -71 1 -128 6 -128 5 0 9 14 10 31 0
17 4 34 7 37 4 4 48 6 98 6 l92 0 -74 11 c-41 7 -83 10 -93 7 -19 -4 -21 8
-20 106 0 17 -5 32 -11 33 -7 0 -4 4 7 8 10 4 165 6 345 5 179 -2 317 1 306 5
-11 5 -82 9 -157 9 -75 0 -141 2 -145 4 -4 1 -89 1 -188 -2z"/>
<path d="M1180 1611 c0 -11 5 -23 10 -26 6 -4 8 -10 5 -15 -3 -5 3 -14 14 -19
14 -8 20 -7 24 4 4 8 1 12 -7 9 -15 -6 -41 40 -32 55 4 6 2 11 -3 11 -6 0 -11
-9 -11 -19z"/>
<path d="M1422 1598 c-15 -40 -11 -44 16 -14 16 19 18 27 8 35 -9 7 -15 2 -24
-21z"/>
<path d="M2150 1621 c0 -5 -3 -18 -7 -28 -3 -10 -3 -15 2 -11 4 4 13 4 19 -1
7 -6 11 -2 11 15 0 13 -6 26 -12 29 -7 2 -13 0 -13 -4z"/>
<path d="M1780 1595 c0 -7 -7 -18 -16 -23 -15 -8 -15 -10 0 -15 10 -4 15 -3
12 2 -3 5 3 11 14 14 23 6 27 37 5 37 -8 0 -15 -7 -15 -15z"/>
<path d="M24 1479 c-16 -4 11 -7 64 -8 50 0 92 2 92 7 0 9 -115 9 -156 1z"/>
<path d="M340 1481 c19 -4 82 -4 140 0 l105 6 -140 0 c-77 0 -124 -2 -105 -6z"/>
<path d="M1220 1475 c0 -8 6 -15 13 -16 6 -1 1 -5 -13 -9 -24 -8 59 -5 137 5
23 3 36 -1 43 -13 9 -16 9 -16 10 1 0 10 8 17 19 17 11 0 22 4 25 9 3 4 -38 7
-92 7 -53 -1 -107 2 -119 6 -17 6 -23 4 -23 -7z"/>
<path d="M1902 1482 c-18 -2 -30 -7 -27 -12 3 -5 13 -6 21 -3 9 3 20 0 25 -8
7 -12 9 -12 9 0 0 7 6 11 15 7 8 -3 15 -1 15 3 0 12 -20 17 -58 13z"/>
<path d="M1521 1475 c3 -3 18 -6 32 -7 25 -2 40 -28 16 -28 -5 0 -7 -5 -3 -12
5 -8 10 -6 16 8 8 18 19 19 146 18 75 -1 118 0 95 3 -24 2 -43 7 -43 11 0 4
-59 8 -132 10 -73 1 -130 0 -127 -3z"/>
<path d="M1977 1473 c-16 -15 -4 -20 51 -20 31 -1 51 2 44 4 -6 3 -9 10 -6 16
5 8 2 8 -7 0 -16 -15 -33 -17 -24 -3 3 6 -1 10 -9 10 -9 0 -16 -5 -16 -11 0
-8 -4 -9 -13 0 -8 6 -17 8 -20 4z"/>
<path d="M2090 1470 c20 -13 63 -13 55 0 -3 6 -21 10 -38 10 -24 0 -28 -3 -17
-10z"/>
<path d="M2640 1468 c0 -5 82 -8 182 -8 100 0 179 2 176 5 -9 9 -358 11 -358
3z"/>
<path d="M953 1443 c-62 -3 -84 -8 -94 -21 -11 -14 -11 -15 1 -4 18 16 181 17
197 1 9 -9 10 -7 6 10 -3 11 -10 20 -17 19 -6 -1 -48 -4 -93 -5z"/>
<path d="M2505 1432 c30 -10 156 -96 188 -128 l28 -27 62 16 c34 9 46 14 27
12 -47 -7 -90 7 -125 39 -53 49 -129 92 -165 93 -24 1 -29 -1 -15 -5z"/>
<path d="M871 1407 c-14 -17 -13 -167 1 -184 13 -16 164 -18 173 -3 10 16 13
170 4 170 -14 0 -22 -22 -21 -55 2 -38 -13 -45 -93 -45 l-50 0 0 50 c0 28 -4
50 -9 50 -6 0 -6 4 1 11 6 6 42 9 91 7 44 -2 78 0 75 5 -8 13 -160 8 -172 -6z
m118 -140 c8 -11 5 -13 -19 -9 -17 2 -33 8 -36 13 -9 14 42 10 55 -4z m41 -37
c10 -7 -11 -10 -67 -10 -49 0 -83 4 -83 10 0 13 130 13 150 0z"/>
<path d="M1384 1363 c-4 -21 -9 -46 -10 -56 -2 -22 -24 -48 -24 -29 0 7 -15
12 -39 12 -43 0 -50 6 -53 42 -1 14 -8 25 -15 25 -15 0 -14 3 -19 -67 l-3 -55
85 3 c55 2 84 0 84 -7 0 -7 -30 -12 -77 -13 l-78 -2 73 -3 c43 -2 79 1 87 7 8
7 13 40 14 95 1 89 -11 112 -25 48z"/>
<path d="M1582 1335 c2 -39 0 -66 -6 -68 -7 -2 -7 -12 1 -28 6 -13 12 -18 12
-11 1 8 24 12 82 12 71 0 80 -2 75 -16 -5 -14 -4 -15 7 -5 10 8 15 37 16 96
l1 85 -43 -2 -42 -1 37 -4 c30 -3 36 -7 31 -21 -4 -9 -13 -23 -20 -30 -16 -17
-17 -32 -1 -32 21 0 0 -12 -29 -15 -59 -8 -88 4 -99 40 -7 22 -7 32 -1 28 6
-4 8 0 4 10 -3 9 -1 18 6 21 7 2 1 5 -12 5 -23 1 -23 -1 -19 -64z m121 -62
c-18 -2 -48 -2 -65 0 -18 2 -4 4 32 4 36 0 50 -2 33 -4z"/>
<path d="M1073 1313 c0 -52 -5 -88 -13 -98 -9 -11 -9 -15 -1 -15 7 0 9 -5 5
-12 -4 -6 -3 -8 4 -4 6 3 17 19 25 35 13 26 13 31 -1 45 -15 15 -14 16 10 16
15 0 30 5 33 10 4 6 -5 10 -20 10 -15 0 -25 5 -24 13 1 6 -1 19 -4 27 -3 8 -8
24 -10 35 -2 11 -4 -17 -4 -62z"/>
<path d="M2395 1380 c-4 -6 -13 -9 -20 -6 -7 2 -16 -1 -19 -9 -3 -8 1 -15 9
-17 10 -2 12 -7 5 -18 -8 -12 -13 -13 -30 -2 -16 10 -20 10 -20 -1 0 -18 -34
-49 -43 -40 -4 3 1 16 10 27 18 21 18 21 -4 3 -12 -11 -19 -25 -17 -32 3 -7
-3 -15 -13 -18 -14 -4 -14 -5 5 -6 25 -1 29 -16 6 -25 -22 -8 -26 -8 -19 4 3
6 -1 10 -10 10 -9 0 -14 4 -11 8 2 4 -3 8 -12 8 -9 0 -33 4 -52 8 l-35 8 42
-31 c24 -17 47 -31 53 -31 5 0 19 -9 30 -20 24 -24 43 -18 61 18 7 15 26 40
41 56 16 17 28 35 28 42 0 7 14 21 30 31 17 9 29 22 27 28 -5 15 -34 18 -42 5z"/>
<path d="M2388 1275 c-50 -63 -98 -115 -105 -115 -7 0 -41 17 -76 39 -35 21
-72 41 -84 45 -30 10 -73 -10 -122 -57 -102 -99 -131 -248 -72 -374 34 -72 92
-132 159 -164 64 -30 181 -37 248 -15 107 35 197 138 208 236 l6 45 -14 -41
c-36 -106 -96 -177 -185 -217 -63 -30 -177 -29 -243 0 -66 30 -130 92 -163
160 -24 49 -28 70 -28 133 1 86 17 133 71 199 39 48 87 81 117 81 11 0 51 -21
89 -45 38 -25 77 -45 87 -45 11 0 55 46 111 114 57 70 100 115 112 115 23 1
203 -135 211 -160 7 -22 -5 -47 -62 -123 -25 -32 -39 -56 -31 -54 7 2 34 33
61 68 37 49 47 71 47 101 0 35 -5 41 -72 90 -116 84 -140 99 -159 99 -12 0
-53 -43 -111 -115z"/>
<path d="M1186 1372 c-9 -14 -5 -161 4 -167 4 -3 9 35 9 85 1 86 -1 100 -13
82z"/>
<path d="M1430 1310 c0 -39 -4 -80 -10 -90 -8 -15 -6 -18 8 -16 16 3 19 13 25
69 1 13 11 17 45 17 26 0 41 -4 37 -10 -3 -5 0 -10 7 -10 9 0 10 -2 1 -8 -8
-5 -8 -13 2 -32 13 -23 14 -19 15 49 0 67 -1 73 -14 55 -11 -14 -11 -21 -3
-26 7 -4 -9 -8 -35 -8 -40 0 -48 3 -54 23 -4 12 -7 27 -6 34 2 6 -2 14 -8 18
-6 4 -10 -19 -10 -65z"/>
<path d="M2480 1326 c-14 -22 -40 -54 -126 -155 -17 -20 -37 -46 -43 -59 -13
-25 -58 -28 -53 -4 1 7 -6 15 -15 19 -10 4 -21 11 -25 17 -5 8 -14 7 -28 -2
-14 -9 -26 -9 -39 -3 -10 6 -21 7 -25 4 -4 -4 -23 -8 -43 -10 -20 -1 -33 1
-29 5 4 4 13 7 19 7 7 0 11 8 11 18 -2 21 -3 21 41 0 19 -9 37 -14 40 -11 8 8
-6 39 -15 33 -4 -3 -13 2 -20 10 -7 8 -20 15 -29 15 -26 0 -115 -90 -138 -140
-37 -80 -39 -134 -6 -220 3 -8 7 -21 9 -28 1 -8 11 -20 21 -28 10 -7 14 -14
10 -14 -5 0 -2 -6 5 -13 16 -16 68 -20 68 -6 0 7 7 8 18 4 9 -4 43 -9 75 -11
51 -3 57 -1 57 15 0 11 -31 48 -71 85 -60 55 -74 64 -90 55 -10 -5 -19 -14
-19 -19 0 -5 -8 -7 -17 -4 -10 3 0 -5 22 -17 22 -12 44 -28 48 -36 5 -7 12
-11 17 -8 5 3 14 -5 21 -17 7 -13 17 -26 23 -30 6 -4 -1 -7 -16 -6 -16 1 -28
5 -28 8 0 3 -11 6 -25 6 -13 1 -23 -3 -22 -10 1 -6 -4 -11 -12 -11 -19 0 -78
112 -77 148 0 27 2 29 33 24 18 -3 35 -1 38 4 4 5 -7 9 -24 9 -34 0 -44 10
-31 30 5 9 4 20 -3 29 -9 12 -9 13 1 7 6 -4 12 -3 12 3 0 5 3 17 7 27 5 13 3
15 -7 9 -8 -5 -11 -3 -8 6 3 8 10 15 16 15 7 1 17 2 23 3 8 1 7 6 -1 17 -12
13 -2 15 92 13 59 -1 112 2 120 6 10 6 11 5 1 -6 -22 -23 -15 -38 17 -37 33 1
50 -9 34 -20 -6 -4 -10 -18 -9 -32 1 -14 -2 -31 -7 -37 -8 -10 -5 -13 8 -12
28 1 56 13 54 24 -1 13 27 51 63 86 15 14 27 29 27 33 0 4 9 17 21 29 12 12
26 34 31 49 5 15 18 30 28 33 20 7 57 -12 65 -33 6 -17 -15 -51 -37 -58 -10
-3 -18 -9 -18 -14 0 -5 -17 -29 -37 -53 -21 -25 -46 -56 -56 -68 -24 -32 -87
-107 -112 -134 -11 -11 -27 -32 -36 -46 -17 -25 -17 -25 17 -27 33 -3 39 4 35
36 -1 6 2 12 8 12 5 0 11 -6 14 -12 2 -7 9 4 16 25 11 32 17 38 35 33 20 -5
20 -4 2 9 -18 13 -17 14 5 19 13 3 39 7 58 8 19 2 36 8 38 14 2 7 -8 9 -27 6
-19 -3 -30 0 -30 7 0 7 4 10 9 7 5 -4 7 4 3 16 -5 21 -4 22 12 9 9 -8 19 -11
23 -7 3 3 1 6 -5 6 -7 0 -12 5 -12 11 0 5 5 7 10 4 6 -3 10 3 10 14 0 12 6 21
14 21 7 0 19 6 25 14 6 8 20 16 30 19 14 3 18 0 15 -17 -3 -12 -2 -15 2 -6 4
8 31 45 61 82 33 40 53 74 50 82 -3 8 -25 27 -49 43 -24 15 -64 44 -89 65 -26
21 -51 38 -56 38 -4 0 -15 -11 -23 -24z"/>
<path d="M71 1323 c12 -20 22 -23 79 -23 36 0 118 -2 183 -3 66 -2 111 0 100
4 -10 4 -90 8 -177 8 -137 1 -162 3 -179 19 -19 17 -19 16 -6 -5z"/>
<path d="M1917 1297 c2 -4 -25 -5 -61 -1 -46 5 -66 3 -66 -4 0 -8 65 -10 227
-6 125 2 229 7 232 10 3 3 -56 4 -131 2 -75 -2 -134 0 -132 3 2 4 -14 6 -35 5
-21 0 -37 -5 -34 -9z"/>
<path d="M2022 1272 c-13 -2 -26 -10 -29 -17 -2 -8 -20 -23 -39 -34 -18 -11
-36 -31 -40 -45 -3 -15 -10 -26 -15 -26 -5 0 -9 -7 -9 -15 0 -8 -8 -15 -17
-16 -10 0 -94 -3 -187 -5 -93 -2 -171 -6 -174 -9 -5 -5 161 -10 183 -5 6 1 56
2 113 2 l103 0 6 28 c4 21 10 27 21 23 12 -5 14 -1 10 15 -4 12 -2 20 3 16 5
-3 9 1 9 8 0 7 12 19 28 26 36 16 87 59 70 58 -7 0 -23 -2 -36 -4z"/>
<path d="M1790 1253 c-1 -22 -23 -53 -38 -53 -6 0 -14 -4 -17 -10 -3 -5 1 -10
10 -10 23 0 65 45 65 70 0 24 -20 27 -20 3z"/>
<path d="M2763 1208 c-2 -27 -14 -56 -36 -87 -71 -99 -107 -151 -107 -156 0
-13 38 -2 60 18 32 29 62 75 56 86 -8 12 16 30 51 41 26 8 26 8 4 9 -16 1 -21
5 -17 16 14 38 17 102 4 107 -9 4 -14 -6 -15 -34z"/>
<path d="M2473 1120 c-70 -91 -233 -280 -242 -280 -4 0 -39 30 -79 66 -40 37
-76 63 -80 59 -4 -3 20 -31 53 -61 84 -76 101 -87 120 -77 18 10 295 344 295
355 0 19 -19 2 -67 -62z"/>
<path d="M459 1135 c-3 -2 -60 -7 -128 -9 -68 -3 -126 -8 -129 -11 -3 -3 55
-5 130 -5 113 0 135 2 135 15 0 16 -1 17 -8 10z"/>
<path d="M1198 1130 c-5 -15 -319 -20 -337 -6 -11 8 -13 8 -7 -1 4 -8 2 -13
-5 -13 -8 0 -8 -4 1 -15 14 -17 40 -20 40 -5 0 6 5 10 11 10 5 0 7 -4 4 -10
-4 -6 18 -11 57 -12 l63 -2 -75 -6 -75 -6 83 -2 c45 -1 81 1 81 6 -4 22 3 34
16 28 8 -3 15 -1 15 4 0 13 107 13 115 0 11 -17 21 -11 23 15 2 25 -3 34 -10
15z"/>
<path d="M1213 1108 c-2 -5 4 -8 14 -8 17 -1 17 -1 0 -11 -9 -6 -15 -14 -12
-20 8 -12 45 -12 45 2 0 5 -5 7 -12 3 -6 -4 -8 -3 -5 2 3 5 41 9 83 8 46 -1
91 4 109 12 35 15 37 15 -113 17 -57 1 -106 -1 -109 -5z"/>
<path d="M2825 1109 c7 -10 122 -6 133 5 3 4 -27 6 -67 6 -49 0 -70 -3 -66
-11z"/>
<path d="M1860 1065 c8 -9 7 -15 -2 -18 -7 -3 -8 -6 -2 -6 7 -1 7 -14 0 -46
l-11 -45 -95 -1 c-52 -1 -111 -1 -130 0 -34 0 -34 0 -8 -8 15 -5 59 -8 97 -6
38 2 91 0 118 -5 26 -4 40 -8 30 -9 -15 -1 -17 -7 -13 -35 3 -19 12 -53 20
-75 13 -39 13 -40 -13 -51 -21 -8 -22 -9 -4 -6 13 2 26 0 29 -5 3 -5 9 -7 14
-4 4 3 7 -11 6 -31 -1 -34 0 -35 26 -30 19 4 27 1 25 -6 -1 -7 13 -20 32 -30
19 -9 39 -22 44 -27 12 -12 47 -15 47 -5 0 8 -63 64 -72 64 -16 0 -86 108
-102 154 -18 54 -21 170 -7 209 9 22 7 25 -15 30 -19 3 -22 1 -14 -8z"/>
<path d="M1298 1063 c18 -2 45 -2 60 0 15 2 0 4 -33 4 -33 0 -45 -2 -27 -4z"/>
<path d="M1413 1044 c24 -28 25 -175 1 -198 -8 -9 -13 -22 -11 -29 4 -9 6 -8
6 2 1 11 4 11 16 1 13 -11 14 -10 10 2 -4 9 1 18 10 22 13 5 15 16 11 53 -11
102 -19 133 -40 150 -21 18 -21 18 -3 -3z"/>
<path d="M872 1038 c-12 -16 -13 -156 0 -180 7 -15 23 -18 87 -18 51 0 82 4
89 13 17 21 14 164 -4 182 -20 19 -156 21 -172 3z m173 -20 c7 -7 -14 -8 -65
-4 -41 3 -83 6 -93 6 -10 0 -16 3 -13 8 6 11 159 2 171 -10z m-52 -18 c27 0
47 -5 47 -11 0 -14 -20 -33 -45 -43 -15 -5 -16 -9 -6 -15 19 -12 -2 -23 -33
-17 -14 3 -28 0 -31 -5 -4 -5 -3 -9 2 -10 4 0 18 -2 31 -3 13 -2 25 1 28 6 3
4 10 8 15 8 6 0 7 -4 4 -10 -3 -5 3 -15 15 -22 35 -22 22 -28 -60 -28 -47 0
-80 4 -80 10 0 6 4 10 9 10 5 0 14 14 21 30 8 20 20 30 34 31 20 0 20 1 1 8
-11 5 -25 4 -32 -1 -9 -7 -14 -6 -17 3 -4 12 -2 54 3 68 0 2 11 1 24 -3 12 -3
43 -6 70 -6z"/>
<path d="M1064 1036 c4 -10 9 -52 13 -93 5 -62 3 -76 -12 -93 -10 -11 -15 -23
-11 -28 12 -11 46 37 39 55 -4 10 -2 14 5 9 7 -4 8 2 2 24 l-9 30 44 0 c38 0
44 -3 42 -20 -1 -11 -5 -20 -9 -20 -4 0 -8 -8 -8 -17 0 -14 2 -15 9 -5 6 10
11 5 20 -18 6 -18 9 -36 6 -40 -3 -4 4 -10 15 -13 24 -6 26 10 5 37 -10 14
-15 47 -16 105 -1 57 -4 74 -8 51 -5 -31 -10 -36 -41 -41 -47 -7 -70 6 -70 39
0 15 -5 34 -11 42 -9 12 -10 12 -5 -4z"/>
<path d="M1233 1042 c-8 -5 -12 -37 -12 -95 0 -80 2 -87 20 -87 11 0 17 5 14
10 -3 6 1 10 9 10 9 0 16 7 16 15 0 8 -5 15 -11 15 -5 0 -7 5 -4 10 3 6 30 10
58 10 33 0 47 -3 38 -9 -11 -7 -11 -9 0 -14 8 -3 2 -6 -13 -6 -36 -1 -36 -16
-1 -19 15 -1 32 -7 37 -12 20 -20 24 -8 25 75 0 73 -2 86 -19 95 -22 12 -139
13 -157 2z m167 -22 c0 -5 -4 -10 -9 -10 -6 0 -11 -15 -13 -32 l-3 -33 -60 0
c-54 0 -60 2 -58 20 1 11 -4 23 -10 27 -9 6 -9 8 1 8 6 0 12 4 12 10 0 5 -7 7
-15 4 -8 -4 -15 -1 -15 5 0 7 30 11 85 11 50 0 85 -4 85 -10z"/>
<path d="M2126 982 c-11 -18 9 -28 32 -16 20 10 21 12 7 18 -22 8 -33 8 -39
-2z"/>
<path d="M345 960 c-4 -6 -79 -10 -177 -10 -94 0 -169 -3 -166 -6 10 -9 331
-6 357 3 20 8 21 11 8 16 -9 3 -19 2 -22 -3z"/>
<path d="M425 949 c-17 -8 -16 -9 8 -5 15 2 30 -1 33 -5 3 -5 22 -9 42 -8 29
0 33 2 17 8 -19 8 -18 9 5 13 l25 5 -25 2 c-15 0 -31 -4 -38 -11 -9 -9 -15 -9
-24 0 -14 14 -16 14 -43 1z"/>
<path d="M2150 951 c0 -11 29 -47 30 -37 0 5 8 2 18 -6 33 -29 49 -28 76 4 29
35 26 48 -10 48 -14 0 -23 -3 -21 -7 3 -5 -9 -7 -26 -6 -18 1 -32 2 -32 3 0 1
-8 3 -17 5 -10 2 -18 0 -18 -4z"/>
<path d="M2586 938 c-6 -5 -7 -8 -1 -10 31 -5 373 -2 367 4 -10 10 -351 15
-366 6z"/>
<path d="M2587 900 c-3 -8 -14 -40 -23 -70 -9 -30 -28 -71 -42 -90 -30 -42
-102 -109 -118 -110 -6 0 -17 -7 -24 -15 -10 -13 -9 -15 9 -15 12 0 24 7 27
15 4 10 17 15 40 13 19 -1 39 3 46 10 7 7 9 12 5 12 -8 0 8 22 36 48 9 9 17
24 17 34 0 16 12 18 138 18 129 0 179 8 153 24 -6 4 -11 3 -11 -2 0 -5 -58
-10 -130 -10 -145 -2 -139 -6 -119 73 11 44 8 95 -4 65z"/>
<path d="M2488 883 c6 -2 12 -12 12 -21 0 -12 -3 -13 -8 -5 -11 18 -29 2 -36
-34 -9 -41 -26 -54 -78 -60 -34 -4 -40 -2 -28 7 13 10 12 11 -3 6 -52 -17 -67
-18 -67 -4 0 7 -9 14 -20 15 -13 1 -20 -4 -20 -16 0 -22 36 -34 61 -20 11 6
20 6 24 0 7 -13 116 -3 133 11 7 6 11 17 8 24 -3 8 0 13 6 11 6 -1 20 19 30
46 l18 47 -23 -1 c-12 0 -16 -3 -9 -6z"/>
<path d="M1278 843 c23 -2 59 -2 80 0 20 2 1 4 -43 4 -44 0 -61 -2 -37 -4z"/>
<path d="M938 823 c18 -2 45 -2 60 0 15 2 0 4 -33 4 -33 0 -45 -2 -27 -4z"/>
<path d="M205 769 l-50 -6 63 -1 c34 -1 62 0 62 2 0 9 -28 11 -75 5z"/>
<path d="M437 768 c-7 -4 1 -8 18 -8 17 0 47 -3 68 -6 31 -6 37 -4 37 12 0 14
-3 15 -12 6 -7 -7 -17 -12 -22 -12 -6 0 -5 4 3 9 8 5 -4 8 -34 7 -25 0 -52 -4
-58 -8z"/>
<path d="M2870 759 c0 -9 6 -10 83 -13 35 -1 67 13 35 15 -76 6 -118 5 -118
-2z"/>
<path d="M2050 735 c0 -9 65 -45 80 -44 10 0 11 2 3 6 -7 2 -13 11 -13 19 0 9
-4 13 -9 10 -5 -4 -21 -2 -35 4 -14 5 -26 7 -26 5z"/>
<path d="M2190 716 c0 -5 -3 -6 -7 -3 -3 4 -12 2 -20 -4 -10 -9 -10 -15 -2
-25 14 -17 76 -18 82 -1 4 10 6 10 6 0 1 -14 51 -18 51 -4 0 4 8 8 18 7 9 0
35 9 56 20 l40 21 -112 -1 c-62 0 -112 -5 -112 -10z"/>
<path d="M733 688 c16 -15 39 -18 146 -18 69 0 293 -3 497 -7 214 -3 380 -2
390 3 12 6 -184 11 -502 14 -322 3 -526 9 -535 15 -8 6 -6 2 4 -7z"/>
<path d="M1423 643 c65 -2 168 -2 230 0 62 1 9 3 -118 3 -126 0 -177 -2 -112
-3z"/>
<path d="M2080 606 c0 -8 6 -17 13 -19 6 -3 -15 -6 -48 -7 -33 -1 -73 -6 -90
-10 -24 -5 139 -12 305 -12 14 0 169 0 345 0 176 1 337 0 358 -2 22 -2 34 1
29 6 -5 5 -145 11 -311 13 -300 4 -302 5 -322 27 -11 13 -18 18 -15 11 4 -6 0
-14 -6 -16 -10 -4 -9 -8 2 -16 11 -8 -7 -10 -67 -9 -79 2 -97 11 -43 21 14 2
-1 2 -32 0 -40 -4 -58 -1 -58 7 0 6 -4 8 -10 5 -5 -3 -19 -1 -30 5 -16 8 -20
8 -20 -4z"/>
<path d="M83 574 c3 -3 159 -6 346 -6 196 0 341 -4 341 -9 0 -5 7 -9 15 -9 8
0 15 5 15 11 0 5 -4 7 -10 4 -5 -3 -10 -1 -10 4 0 8 -112 11 -351 11 -194 0
-349 -3 -346 -6z"/>
<path d="M1012 565 c-11 -12 -10 -15 3 -15 8 0 15 4 15 10 0 6 94 11 248 13
l247 2 -250 2 c-209 2 -252 0 -263 -12z"/>
<path d="M1598 572 c13 -2 19 -8 16 -14 -5 -7 -2 -8 5 -3 7 4 45 11 84 15 l72
7 -100 0 c-55 0 -90 -2 -77 -5z"/>
<path d="M1826 573 c-3 -4 -25 -10 -49 -14 -30 -6 -23 -6 23 -3 36 3 78 6 93
6 20 1 24 3 15 9 -16 10 -72 12 -82 2z"/>
<path d="M2005 430 c-6 -18 -17 -20 -153 -23 l-147 -3 160 0 c158 1 160 1 163
24 4 27 -14 29 -23 2z"/>
<path d="M2404 425 c-13 -10 -49 -15 -109 -17 l-90 -2 87 -3 c73 -3 91 -1 120
17 18 11 28 20 22 20 -5 0 -19 -7 -30 -15z"/>
<path d="M2120 421 c0 -9 -9 -12 -30 -9 -17 3 -34 0 -39 -6 -7 -8 2 -10 27 -9
21 1 56 2 80 2 23 1 42 4 42 9 0 4 -15 7 -32 6 -18 -1 -36 4 -40 10 -5 7 -8 7
-8 -3z"/>
<path d="M430 410 l-135 -6 180 -3 c99 -1 225 -4 280 -5 68 -2 87 0 60 5 -22
4 -71 8 -110 8 -38 0 -86 2 -105 3 -19 2 -96 1 -170 -2z"/>
<path d="M920 409 c-52 -4 -40 -6 60 -7 69 -1 136 -5 150 -8 17 -5 22 -3 15 4
-12 13 -138 19 -225 11z"/>
<path d="M111 399 c26 -5 57 -5 70 -1 17 7 4 9 -46 9 -69 0 -69 0 -24 -8z"/>
<path d="M1389 400 c17 -10 219 -12 243 -2 9 4 -44 8 -119 9 -76 1 -131 -2
-124 -7z"/>
<path d="M2451 399 c13 -8 178 -2 188 7 2 2 -42 4 -99 3 -67 0 -98 -4 -89 -10z"/>
<path d="M2888 403 c23 -2 59 -2 80 0 20 2 1 4 -43 4 -44 0 -61 -2 -37 -4z"/>
<path d="M761 229 c-95 -12 -95 -16 1 -17 51 0 90 4 94 10 4 6 -1 8 -16 3 -15
-5 -20 -4 -16 4 4 6 6 10 4 10 -2 -1 -32 -5 -67 -10z"/>
<path d="M925 230 c4 -7 -2 -9 -18 -5 -14 4 -28 2 -31 -4 -4 -7 90 -10 288
-11 162 0 297 3 299 7 3 5 -90 8 -206 8 -117 0 -225 3 -242 7 -17 5 -31 4 -33
-1 -2 -6 -13 -7 -28 0 -32 12 -37 11 -29 -1z"/>
<path d="M65 220 c-3 -4 2 -10 10 -14 8 -3 15 -1 15 3 0 5 28 7 63 4 34 -3 60
-3 57 0 -8 9 -140 15 -145 7z"/>
<path d="M231 220 c-7 -4 35 -7 93 -6 58 0 106 4 106 8 0 9 -184 8 -199 -2z"/>
<path d="M480 222 c0 -4 43 -8 96 -10 53 -1 94 1 90 5 -9 9 -186 14 -186 5z"/>
<path d="M1815 219 c-38 -3 152 -6 424 -7 271 -1 491 2 487 5 -8 9 -814 10
-911 2z"/>
<path d="M2760 220 c-19 -6 -11 -8 28 -8 29 0 52 1 50 3 -10 8 -57 11 -78 5z"/>
<path d="M2888 213 c23 -2 59 -2 80 0 20 2 1 4 -43 4 -44 0 -61 -2 -37 -4z"/>
<path d="M820 72 c0 -6 -21 -12 -47 -14 -27 -2 -1 -4 57 -4 67 -1 95 2 77 7
-16 4 -35 5 -43 2 -8 -3 -21 0 -29 7 -10 8 -15 9 -15 2z"/>
<path d="M420 64 c36 -7 139 -10 128 -2 -7 4 -42 7 -78 7 -36 -1 -58 -3 -50
-5z"/>
<path d="M618 58 c-15 -4 -5 -6 30 -7 28 -1 52 2 52 7 0 9 -51 9 -82 0z"/>
<path d="M1443 60 c-156 -5 -150 -6 82 -6 138 -1 239 0 225 2 -59 8 -149 9
-307 4z"/>
<path d="M1028 53 c17 -2 47 -2 65 0 17 2 3 4 -33 4 -36 0 -50 -2 -32 -4z"/>
<path d="M1811 56 c8 -8 139 -11 139 -4 0 5 -32 8 -72 8 -39 0 -69 -2 -67 -4z"/>
<path d="M1973 49 c11 -7 32 -7 60 -1 l42 10 -60 1 c-46 0 -56 -2 -42 -10z"/>
<path d="M2165 50 c-39 -8 -38 -8 12 -6 29 0 53 4 53 9 0 8 -7 8 -65 -3z"/>
</g>
</svg>
